<?xml version="1.0" encoding="UTF-8"?>
<svg width="16" height="16" version="1.1" xmlns="http://www.w3.org/2000/svg" xmlns:cc="http://creativecommons.org/ns#" xmlns:dc="http://purl.org/dc/elements/1.1/" xmlns:rdf="http://www.w3.org/1999/02/22-rdf-syntax-ns#">
 <metadata>
  <rdf:RDF>
   <cc:Work rdf:about="">
    <dc:format>image/svg+xml</dc:format>
    <dc:type rdf:resource="http://purl.org/dc/dcmitype/StillImage"/>
   </cc:Work>
  </rdf:RDF>
 </metadata>
 <path d="m3.9941 1c-1.2582 0.0145-2.1789-0.030604-2.9316 0.38477-0.37637 0.20766-0.67323 0.55939-0.83789 0.99805-0.16467 0.43867-0.22461 0.95958-0.22461 1.6172v7c0 0.65761 0.059899 1.1785 0.22461 1.6172 0.16467 0.43866 0.46152 0.7904 0.83789 0.99805 0.75275 0.41532 1.6735 0.3702 2.9316 0.38477h0.0039063 2.002v-1.1367s-1.6154-0.005981-2.4199 0c-0.78646-0.11198-1.9999 0.29029-2.4043-0.69141-0.1705-2.4656-0.088844-4.9496-0.089844-7.4355 0.12175-0.84105-0.29598-2.0645 0.6875-2.5117 1.6892-0.21162 3.4084-0.077503 5.123-0.13281 1.749-4e-3 3.4973-0.0010197 5.2461 0.021484 0.86117 0.14671 2.161-0.34154 2.6738 0.66797 0.10088 1.1534 0.13119 2.3121 0.13672 3.4727 0.62144 0.10193 1.0469 0.70703 1.0469 0.70703v-2.9609c0-0.65761-0.059899-1.1785-0.22461-1.6172-0.16466-0.43866-0.46152-0.79039-0.83789-0.99805-0.75275-0.41534-1.6734-0.37025-2.9316-0.38477h-0.003906-8.0039-0.0039063zm5.2715 2c-0.4971-0.0058996-1.0175 0.060681-1.5957 0.21484-0.76873 0.20449-1.7695 0.61812-1.7695 1.4277v1.3535h3.0469v0.99805h-2.8047c-1.7822 0-3.1224 0.79761-3.1426 2.5137 0 1.9223 1.3511 2.4922 2.2695 2.4922h0.73047v-1c0-0.96587 0.67901-2 1.6953-2h3.0234c0.83544 0 1.2812-0.53207 1.2812-1.3008v-3.0605c0-0.76033-0.47409-1.2057-1.2812-1.4238-0.48329-0.13056-0.95602-0.20894-1.4531-0.21484zm-1.8555 0.96875c0.3154 0 0.57227 0.24137 0.57227 0.53711 0 0.2947-0.25687 0.5332-0.57227 0.5332-0.31655 0-0.57422-0.2385-0.57422-0.5332 0-0.29574 0.25767-0.53711 0.57422-0.53711zm5.5898 3.0312v1c0 0.96587-0.679 2-1.6953 2h-3.0234c-0.83544 0-1.2812 0.53207-1.2812 1.3008v3.0605c0 0.76033 0.47409 1.2057 1.2812 1.4238 0.96658 0.26112 1.8923 0.30832 3.0488 0 0.76872-0.20449 1.7695-0.61812 1.7695-1.4277v-1.3535h-3.0469v-0.99805h2.8047c1.7822 0 3.1224-0.79761 3.1426-2.5137 0-1.9223-1.3511-2.4922-2.2695-2.4922h-0.73047zm-1.4102 6.9609c0.31654 0 0.57422 0.2385 0.57422 0.5332 0 0.29574-0.25768 0.53711-0.57422 0.53711-0.3154 0-0.57227-0.24136-0.57227-0.53711 0-0.2947 0.25687-0.5332 0.57227-0.5332z" color="#000000" color-rendering="auto" dominant-baseline="auto" fill="#808080" image-rendering="auto" shape-rendering="auto" solid-color="#000000" style="font-feature-settings:normal;font-variant-alternates:normal;font-variant-caps:normal;font-variant-ligatures:normal;font-variant-numeric:normal;font-variant-position:normal;isolation:auto;mix-blend-mode:normal;shape-padding:0;text-decoration-color:#000000;text-decoration-line:none;text-decoration-style:solid;text-indent:0;text-orientation:mixed;text-transform:none;white-space:normal"/>
</svg>
