<?xml version="1.0" encoding="UTF-8"?>
<svg width="128" height="128" version="1.1" viewBox="0 0 33.867 33.867" xmlns="http://www.w3.org/2000/svg" xmlns:xlink="http://www.w3.org/1999/xlink">
 <defs>
  <linearGradient id="linearGradient2031" x1="344" x2="344" y1="66.001" y2="102" gradientTransform="rotate(-90,344,84)" gradientUnits="userSpaceOnUse">
   <stop stop-color="#fff" offset="0"/>
   <stop stop-color="#fff" stop-opacity=".098039" offset=".125"/>
   <stop stop-color="#fff" stop-opacity=".098039" offset=".925"/>
   <stop stop-color="#fff" stop-opacity=".49804" offset="1"/>
  </linearGradient>
  <clipPath id="clipPath994-5-1-9">
   <path d="m335.73 62c-8.8242 0-9.7736 0.90635-9.7304 9.7484v24.504c-0.0433 8.842 0.90622 9.7484 9.7304 9.7484h16.539c8.8242 0 9.7304-0.90625 9.7304-9.7484v-24.504c0-8.8421-0.90622-9.7484-9.7304-9.7484z" color="#000000" fill="#cdcdcd"/>
  </clipPath>
 </defs>
 <g transform="scale(.26458)" style="mix-blend-mode:normal">
  <path d="m118.26 34.731c0-5.3917-0.12254-9.637-0.70114-13.13-0.57862-3.4932-1.664-6.3516-3.7252-8.4455-2.0614-2.0938-4.8809-3.1991-8.3295-3.7799-3.4486-0.58091-7.6472-0.69431-12.98-0.66787h-61.021c-5.3251-0.026192-9.5213 0.087549-12.966 0.66787-3.4486 0.58091-6.268 1.686-8.3295 3.7799-2.0613 2.0939-3.1468 4.9522-3.7252 8.4455-0.57865 3.4932-0.70113 7.7386-0.70113 13.13v42.535c0 5.3917 0.12229 9.6348 0.70113 13.121 0.57889 3.486 1.6679 6.3358 3.73 8.422 2.0621 2.0862 4.8795 3.1848 8.3247 3.7704 3.4452 0.58566 7.6352 0.71051 12.966 0.71051h61.036c5.3311 0 9.521-0.1249 12.966-0.71051 3.4452-0.58566 6.2627-1.6843 8.3247-3.7704 2.0621-2.0861 3.1511-4.9358 3.73-8.422 0.57889-3.486 0.70113-7.7291 0.70113-13.121z" color="#000000" color-rendering="auto" dominant-baseline="auto" image-rendering="auto" opacity=".1" shape-rendering="auto" solid-color="#000000" stroke-width="2.4091" style="font-feature-settings:normal;font-variant-alternates:normal;font-variant-caps:normal;font-variant-ligatures:normal;font-variant-numeric:normal;font-variant-position:normal;isolation:auto;mix-blend-mode:normal;shape-padding:0;text-decoration-color:#000000;text-decoration-line:none;text-decoration-style:solid;text-indent:0;text-orientation:mixed;text-transform:none;white-space:normal"/>
  <path d="m115.87 32.306c0-19.963-2.169-23.703-23.33-23.598h-61.036c-21.161-0.10501-23.33 3.6351-23.33 23.598v42.535c0 19.958 2.1688 23.598 23.33 23.598h61.036c21.161 0 23.33-3.64 23.33-23.598z" color="#000000" fill="#4d4d4d" stroke-width="2.4091" style="mix-blend-mode:normal"/>
  <path d="m115.87 32.306c0-19.963-2.169-23.703-23.33-23.598h-61.036c-21.161-0.10501-23.33 3.6351-23.33 23.598v42.535c0 19.958 2.1688 23.598 23.33 23.598h61.036c21.161 0 23.33-3.64 23.33-23.598z" color="#000000" fill="none" opacity=".4" stroke="#000" stroke-width="2.6787" style="mix-blend-mode:normal"/>
  <path transform="matrix(0 2.4252 -2.3932 0 263.05 -780.69)" d="m335.73 62c-8.8242 0-9.7736 0.90635-9.7304 9.7484v24.504c-0.0433 8.842 0.90622 9.7484 9.7304 9.7484h16.539c8.8242 0 9.7304-0.90625 9.7304-9.7484v-24.504c0-8.8421-0.90622-9.7484-9.7304-9.7484z" clip-path="url(#clipPath994-5-1-9)" color="#000000" fill="none" opacity=".3" stroke="url(#linearGradient2031)" stroke-width="2.2242" style="mix-blend-mode:normal"/>
  <g transform="matrix(1 0 0 .98311 0 .099111)" stroke-width="2.4091">
   <path d="m25.002 24.94-1.1519 3.5117 11.694 4.7534-11.694 4.7534 1.1519 3.5117 15.045-6.4559v-3.6181zm15.472 21.354v3.5827h17.902v-3.5827z" enable-background="new" opacity=".2" style="mix-blend-mode:normal"/>
   <path d="m25.002 22.515-1.1519 3.5117 11.694 4.7534-11.694 4.7534 1.1519 3.5117 15.045-6.4559v-3.6181zm15.472 21.354v3.5827h17.902v-3.5827z" enable-background="new" fill="#f2f2f2" style="mix-blend-mode:normal"/>
  </g>
  <path id="canvas-align-top-left" d="m32 32h-32v-32h32z" opacity="0" style="mix-blend-mode:normal"/>
  <g style="mix-blend-mode:normal">
   <path id="pylogo-outline" d="m121.39 92.252c-1.4 4.212-4.3914 9.748-11.999 9.748h-6.392v7.252c0 3.62-0.476 9.1486-10.988 12.193-3.616 1.044-6.912 1.556-10.264 1.556-3.32 0-6.388-0.512-9.968-1.568-7.668-2.252-11.775-6.0566-11.78-12.181v-6.252h-5.192c-6.792 0-11.506-3.564-13.398-11.44-1.876-7.784-1.876-12.084 0-19.868 1.804-7.524 7.5736-11.692 15.114-11.692h3.472v-6.788c0-8.02 3.336-10.812 12.216-12.384 2.912-0.512 5.896-0.82775 9.184-0.82775h0.012c3.684 0 6.94 0.28775 10.148 0.82375 7.264 1.212 11.444 5.7722 11.444 12.392v6.784h6.392c4.568 0 9.5554 1.424 12.091 11.648 2.06 8.288 2.036 14.232-0.092 20.604z" fill="#fff"/>
   <path id="pylogo-bottom" d="m103 63v7.728c0 6.332-5.878 12.272-12.002 12.272h-18.372c-5.032 0-9.626 3.696-9.626 8.736v17.516c0 4.984 4.766 7.916 9.626 9.348 5.824 1.712 11.404 2.02 18.372 0 4.632-1.34 9.002-4.04 9.002-9.348v-7.252h-18v-3h27.39c5.344 0 7.336-2.824 9.196-8.42 1.92-5.76 1.84-11.304 0-18.692-1.32-5.32-3.844-8.888-9.196-8.888zm-10.846 43.916c1.908 0 3.452 1.564 3.452 3.496 0.01776 1.9242-1.5278 3.4984-3.452 3.516-1.9233-0.0198-3.4675-1.5927-3.452-3.516-0.0089-1.9173 1.5347-3.4806 3.452-3.496z" fill="#ffc836"/>
   <path id="pylogo-top" d="m81.169 43.002c-3.1852 0.016-6.2286 0.284-8.9032 0.752-7.886 1.376-9.2256 4.2522-9.2655 9.56v6.6864h19v3h-26.046c-5.414 0-10.159 2.8736-11.643 8.9856-1.7101 7.004-1.7871 11.376 0 18.692 1.3251 5.4441 4.486 9.3224 9.9041 9.3224h5.784v-8.4024c0-6.072 5.9437-11.598 12.265-11.598h18.613c4.5787 0 9.1217-4.3891 9.1217-9.1784v-17.516c0-4.984-4.0643-8.728-9.1217-9.56-3.2014-0.52-6.5244-0.756-9.7096-0.744zm-10.074 5.64c1.9249 0 3.4972 1.576 3.4972 3.516 9e-3 1.9173-1.5549 3.4806-3.4972 3.496-1.9443-0.01101-3.5107-1.5769-3.4972-3.496 0-1.94 1.5642-3.516 3.4972-3.516z" fill="#366a96"/>
  </g>
 </g>
</svg>
