<?xml version="1.0" encoding="UTF-8"?>
<svg width="128" height="128" version="1.1" viewBox="0 0 33.867 33.867" xmlns="http://www.w3.org/2000/svg">
 <defs>
  <linearGradient id="linearGradient2031" x1="344" x2="344" y1="66.001" y2="102" gradientTransform="rotate(-90,344,84)" gradientUnits="userSpaceOnUse">
   <stop stop-color="#fff" offset="0"/>
   <stop stop-color="#fff" stop-opacity=".098039" offset=".125"/>
   <stop stop-color="#fff" stop-opacity=".098039" offset=".925"/>
   <stop stop-color="#fff" stop-opacity=".49804" offset="1"/>
  </linearGradient>
  <clipPath id="clipPath994-5-1-9">
   <path d="m335.73 62c-8.8242 0-9.7736 0.90635-9.7304 9.7484v24.504c-0.0433 8.842 0.90622 9.7484 9.7304 9.7484h16.539c8.8242 0 9.7304-0.90625 9.7304-9.7484v-24.504c0-8.8421-0.90622-9.7484-9.7304-9.7484z" color="#000000" fill="#cdcdcd"/>
  </clipPath>
 </defs>
 <path d="m31.289 9.1891c0-1.4265-0.03242-2.5498-0.18551-3.4739-0.15309-0.92423-0.44026-1.6805-0.98561-2.2345-0.5454-0.55398-1.2914-0.84642-2.2038-1.0001-0.91243-0.1537-2.0233-0.1837-3.4342-0.1767h-16.145c-1.4089-0.0069299-2.5191 0.023164-3.4305 0.1767-0.91243 0.1537-1.6584 0.44608-2.2038 1.0001-0.54538 0.554-0.83258 1.3103-0.98561 2.2345-0.1531 0.92423-0.1855 2.0475-0.1855 3.4739v11.254c0 1.4265 0.032355 2.5492 0.1855 3.4716 0.15316 0.92233 0.44129 1.6763 0.98688 2.2283 0.54559 0.55197 1.291 0.84264 2.2025 0.99757 0.91153 0.15495 2.0201 0.18799 3.4305 0.18799h16.149c1.4105 0 2.5191-0.03305 3.4305-0.18799 0.91153-0.15495 1.657-0.44563 2.2025-0.99757 0.54559-0.55194 0.83372-1.3059 0.98688-2.2283 0.15316-0.92232 0.1855-2.045 0.1855-3.4716z" color="#000000" color-rendering="auto" dominant-baseline="auto" image-rendering="auto" opacity=".1" shape-rendering="auto" solid-color="#000000" stroke-width=".6374" style="font-feature-settings:normal;font-variant-alternates:normal;font-variant-caps:normal;font-variant-ligatures:normal;font-variant-numeric:normal;font-variant-position:normal;isolation:auto;mix-blend-mode:normal;shape-padding:0;text-decoration-color:#000000;text-decoration-line:none;text-decoration-style:solid;text-indent:0;text-orientation:mixed;text-transform:none;white-space:normal"/>
 <path d="m30.657 8.5475c0-5.2818-0.57387-6.2713-6.1727-6.2436h-16.149c-5.5988-0.027784-6.1727 0.96177-6.1727 6.2436v11.254c0 5.2805 0.57382 6.2436 6.1727 6.2436h16.149c5.5988 0 6.1727-0.96307 6.1727-6.2436z" color="#000000" fill="#4d4d4d" stroke-width=".6374" style="mix-blend-mode:normal"/>
 <path d="m30.657 8.5475c0-5.2818-0.57387-6.2713-6.1727-6.2436h-16.149c-5.5988-0.027784-6.1727 0.96177-6.1727 6.2436v11.254c0 5.2805 0.57382 6.2436 6.1727 6.2436h16.149c5.5988 0 6.1727-0.96307 6.1727-6.2436z" color="#000000" fill="none" opacity=".4" stroke="#000" stroke-width=".70873" style="mix-blend-mode:normal"/>
 <path transform="matrix(0 .64166 -.63319 0 69.598 -206.55)" d="m335.73 62c-8.8242 0-9.7736 0.90635-9.7304 9.7484v24.504c-0.0433 8.842 0.90622 9.7484 9.7304 9.7484h16.539c8.8242 0 9.7304-0.90625 9.7304-9.7484v-24.504c0-8.8421-0.90622-9.7484-9.7304-9.7484z" clip-path="url(#clipPath994-5-1-9)" color="#000000" fill="none" opacity=".3" stroke="url(#linearGradient2031)" stroke-width="2.2242" style="mix-blend-mode:normal"/>
 <g transform="translate(-.36216 -.3226)" stroke-width=".63199">
  <path d="m6.615 6.5134-0.30477 0.91343 3.094 1.2364-3.094 1.2364 0.30477 0.91343 3.9684-1.6793v-0.94111zm4.0936 5.5544v0.9319h4.472v-0.93195z" enable-background="new" opacity=".2" style="mix-blend-mode:normal"/>
  <path d="m6.615 5.8826-0.30477 0.91343 3.094 1.2364-3.094 1.2364 0.30477 0.91343 3.9684-1.6793v-0.9412zm4.0936 5.5544v0.9319l4.472-8e-5v-0.93187z" enable-background="new" fill="#f2f2f2" style="mix-blend-mode:normal"/>
 </g>
 <g stroke-width=".26458">
  <path id="canvas-align-top-left" d="M 8.46656,8.46656 H 0 V 0 h 8.46656 z" opacity="0" style="mix-blend-mode:normal"/>
  <path id="pylogo-outline" d="m32.117 24.408c-0.37041 1.1144-1.1619 2.5791-3.1747 2.5791h-1.6912v1.9187c0 0.95778-0.12594 2.4205-2.9072 3.226-0.95672 0.27622-1.8288 0.41169-2.7156 0.41169-0.8784 0-1.6901-0.13546-2.6373-0.41486-2.0288-0.59583-3.1154-1.6025-3.1168-3.2228v-1.6542h-1.3737c-1.797 0-3.0443-0.94296-3.5448-3.0268-0.49635-2.0595-0.49635-3.1972 0-5.2567 0.4773-1.9907 2.0038-3.0935 3.9989-3.0935h0.91862v-1.796c0-2.1219 0.88264-2.8606 3.2321-3.2766 0.77046-0.13546 1.56-0.21901 2.4299-0.21901h0.0032c0.97471 0 1.8362 0.07613 2.685 0.21795 1.9219 0.32067 3.0279 1.5272 3.0279 3.2787v1.7949h1.6912c1.2086 0 2.5282 0.37676 3.199 3.0818 0.54503 2.1928 0.53868 3.7655-0.02434 5.4514z" fill="#fff" style="mix-blend-mode:normal"/>
  <path id="pylogo-bottom" d="m27.252 16.669v2.0447c0 1.6753-1.5552 3.2469-3.1755 3.2469h-4.8609c-1.3314 0-2.5468 0.97789-2.5468 2.3114v4.6344c0 1.3187 1.261 2.0944 2.5468 2.4733 1.5409 0.45296 3.0173 0.53445 4.8609 0 1.2255-0.35454 2.3817-1.0689 2.3817-2.4733v-1.9187h-4.7624v-0.79374h7.2468c1.4139 0 1.941-0.74717 2.4331-2.2278 0.50799-1.524 0.48683-2.9908 0-4.9455-0.34925-1.4076-1.017-2.3516-2.4331-2.3516zm-2.8696 11.619c0.50482 0 0.91333 0.4138 0.91333 0.92497 0.0047 0.5091-0.40422 0.92561-0.91333 0.93026-0.50887-0.0052-0.91743-0.4214-0.91333-0.93026-0.0024-0.50728 0.40605-0.9209 0.91333-0.92497z" fill="#ffc836" style="mix-blend-mode:normal"/>
  <path id="pylogo-top" d="m21.476 11.377c-0.84274 0.0042-1.648 0.07514-2.3556 0.19896-2.0865 0.36406-2.4409 1.125-2.4515 2.5294v1.7691h5.027v0.79374h-6.8912c-1.4324 0-2.6879 0.7603-3.0805 2.3774-0.45246 1.8531-0.47283 3.0099 0 4.9455 0.3506 1.4404 1.1869 2.4665 2.6204 2.4665h1.5303v-2.2231c0-1.6065 1.5726-3.0686 3.2451-3.0686h4.9246c1.2114 0 2.4134-1.1613 2.4134-2.4284v-4.6344c0-1.3187-1.0753-2.3093-2.4134-2.5294-0.84703-0.13758-1.7262-0.20002-2.569-0.19685zm-2.6654 1.4922c0.50929 0 0.92529 0.41698 0.92529 0.93026 0.0024 0.50728-0.4114 0.9209-0.92529 0.92497-0.51442-0.0029-0.92886-0.41722-0.92529-0.92497 0-0.51329 0.41386-0.93026 0.92529-0.93026z" fill="#366a96" style="mix-blend-mode:normal"/>
 </g>
</svg>
