<?xml version="1.0" encoding="UTF-8"?>
<svg width="128" height="128" version="1.1" viewBox="0 0 128 128" xmlns="http://www.w3.org/2000/svg">
 <style>.icon-canvas-transparent{opacity:0;fill:#f6f6f6}.icon-white{fill:#fff}.terminal-ui{fill:#5e5c64}.terminal-text{fill:#77767b}.terminal-bg{fill:#241f31}</style>
 <g style="mix-blend-mode:normal">
  <path id="canvas" class="icon-canvas-transparent" d="m32 32h-32v-32h32z"/>
  <path id="terminal-background" class="terminal-bg" d="m10 17v80h102v-80z"/>
  <path id="terminal-text" class="terminal-text" d="m16 24v4.0244h16v-4.0244h-6v2.0122h-6v-2.0122zm18 0v4.0244h16v-2.0122h-2v-2.0122h-4v2.0122h-2v-2.0122h-2v2.0122h-4v-2.0122zm18 0v4.0244h4v-4.0244zm8 0v2.0122h-2v2.0122h10v-2.0122h-6v-2.0122zm-44 5.9973v4.0244h16v-4.0244h-6v2.0122h-6v-2.0122zm18 0v4.0244h16v-2.0122h-2v-2.0122h-4v2.0122h-2v-2.0122h-2v2.0122h-4v-2.0122zm18 0v4.0244h4v-4.0244zm12 0v2.0122h-6v2.0122h12v-2.0122h-4v-2.0122zm20 0v2.0122h-6v2.0122h16v-4.0244h-2v2.0122h-4v-2.0122zm-12 2.0122v2.0122h4v-2.0122zm-56 5.9973v2.0122h2v-2.0122zm4 0v2.0122h2v-2.0122zm4 0v2.0122h2v-2.0122zm4 0v2.0122h2v-2.0122zm4 0v2.0122h2v-2.0122zm4 0v2.0122h2v-2.0122zm4 0v2.0122h2v-2.0122zm4 0v2.0122h2v-2.0122zm4 0v2.0122h2v-2.0122zm4 0v2.0122h2v-2.0122zm4 0v2.0122h2v-2.0122zm4 0v2.0122h2v-2.0122zm4 0v2.0122h2v-2.0122zm-48 5.9973v2.0122h2v-2.0122zm4 0v2.0122h2v-2.0122zm4 0v2.0122h2v-2.0122zm4 0v2.0122h2v-2.0122zm4 0v2.0122h2v-2.0122zm4 0v2.0122h2v-2.0122zm4 0v2.0122h2v-2.0122zm4 0v2.0122h2v-2.0122zm4 0v2.0122h2v-2.0122zm4 0v2.0122h2v-2.0122zm4 0v2.0122h2v-2.0122zm-40 5.9973v2.0122h2v-2.0122zm4 0v2.0122h2v-2.0122zm4 0v2.0122h2v-2.0122zm4 0v2.0122h2v-2.0122zm4 0v2.0122h2v-2.0122zm-16 5.9973v2.0122h42v-2.0122zm0 3.9851v4.0244h6v-2.0122h-4v-2.0122zm8 0v4.0244h2v-4.0244zm4 0v4.0244h10v-2.0122h-2v-2.0122h-2v2.0122h-4v-2.0122zm12 2.0122v2.0122h4v-2.0122zm-24 9.9824v4.0244h4v-4.0244zm0 5.9973v4.0244h16v-4.0244h-6v2.0122h-6v-2.0122zm18 0v4.0244h4v-2.0122h-2v-2.0122z"/>
  <path id="terminal-border" class="terminal-ui" d="m112 17v80h-102v-80h-1.9999v82h108v-82z"/>
  <path id="terminal-titlebar" class="terminal-ui" d="m16.309 8c-4.6025 0-8.3086 3.1556-8.3086 7.0762v1.9238h108v-1.9238c0-3.9206-3.7061-7.0762-8.3086-7.0762z"/>
  <path id="terminal-slider" d="m115 18h-2v79h2z" fill="#999"/>
  <path id="buttons-min-max-close" class="icon-white" d="m108.11 12.507 1.716 1.716-0.56 0.568-1.72-1.72-1.72 1.72-0.56-0.568 1.716-1.716-1.716-1.716 0.564-0.568 1.716 1.72 1.72-1.72 0.564 0.568zm-6.164-2.4h-4.8v4.8h4.8zm-4 0.8h3.2v3.2h-3.2zm-4.556 3.2h-4.0002v0.8h4.0002z"/>
  <path id="button-menu" class="icon-white" d="m78.279 10.107v0.79883h5v-0.79883zm0 2v0.79883h5v-0.79883zm0 2v0.79883h5v-0.79883z"/>
  <path id="button-search" class="icon-white" d="m72.012 10.107c-1.0127 0-1.8418 0.82914-1.8418 1.8418s0.82914 1.8418 1.8418 1.8418c0.3481 0 0.67462-0.09785 0.95312-0.26758l1.3828 1.3828 0.56055-0.56641-1.3672-1.3691c0.19675-0.29293 0.3125-0.64425 0.3125-1.0215 0-1.0127-0.82914-1.8418-1.8418-1.8418zm0 0.78516c0.58798 0 1.0566 0.46866 1.0566 1.0566s-0.46866 1.0566-1.0566 1.0566-1.0547-0.46866-1.0547-1.0566 0.4667-1.0566 1.0547-1.0566z"/>
  <path id="button-new-tab" class="icon-white" d="m16.105 10.508v1.5996h-1.5996v0.79883h1.5996v1.6016h0.80078v-1.6016h1.5996v-0.79883h-1.5996v-1.5996z"/>
  <path id="pylogo-outline" d="m121.39 92.252c-1.4 4.212-4.3914 9.748-11.999 9.748h-6.392v7.252c0 3.62-0.476 9.1486-10.988 12.193-3.616 1.044-6.912 1.556-10.264 1.556-3.32 0-6.388-0.512-9.968-1.568-7.668-2.252-11.775-6.0566-11.78-12.181v-6.252h-5.192c-6.792 0-11.506-3.564-13.398-11.44-1.876-7.784-1.876-12.084 0-19.868 1.804-7.524 7.5736-11.692 15.114-11.692h3.472v-6.788c0-8.02 3.336-10.812 12.216-12.384 2.912-0.512 5.896-0.82775 9.184-0.82775h0.012c3.684 0 6.94 0.28775 10.148 0.82375 7.264 1.212 11.444 5.7722 11.444 12.392v6.784h6.392c4.568 0 9.5554 1.424 12.091 11.648 2.06 8.288 2.036 14.232-0.092 20.604z" fill="#fff"/>
  <path id="pylogo-bottom" d="m103 63v7.728c0 6.332-5.878 12.272-12.002 12.272h-18.372c-5.032 0-9.626 3.696-9.626 8.736v17.516c0 4.984 4.766 7.916 9.626 9.348 5.824 1.712 11.404 2.02 18.372 0 4.632-1.34 9.002-4.04 9.002-9.348v-7.252h-18v-3h27.39c5.344 0 7.336-2.824 9.196-8.42 1.92-5.76 1.84-11.304 0-18.692-1.32-5.32-3.844-8.888-9.196-8.888zm-10.846 43.916c1.908 0 3.452 1.564 3.452 3.496 0.01776 1.9242-1.5278 3.4984-3.452 3.516-1.9233-0.0198-3.4675-1.5927-3.452-3.516-0.0089-1.9173 1.5347-3.4806 3.452-3.496z" fill="#ffc836"/>
  <path id="pylogo-top" d="m81.169 43.002c-3.1852 0.016-6.2286 0.284-8.9032 0.752-7.886 1.376-9.2256 4.2522-9.2655 9.56v6.6864h19v3h-26.046c-5.414 0-10.159 2.8736-11.643 8.9856-1.7101 7.004-1.7871 11.376 0 18.692 1.3251 5.4441 4.486 9.3224 9.9041 9.3224h5.784v-8.4024c0-6.072 5.9437-11.598 12.265-11.598h18.613c4.5787 0 9.1217-4.3891 9.1217-9.1784v-17.516c0-4.984-4.0643-8.728-9.1217-9.56-3.2014-0.52-6.5244-0.756-9.7096-0.744zm-10.074 5.64c1.9249 0 3.4972 1.576 3.4972 3.516 9e-3 1.9173-1.5549 3.4806-3.4972 3.496-1.9443-0.01101-3.5107-1.5769-3.4972-3.496 0-1.94 1.5642-3.516 3.4972-3.516z" fill="#366a96"/>
 </g>
</svg>
