<?xml version="1.0" encoding="UTF-8"?>
<svg width="128" height="128" version="1.1" viewBox="0 0 33.867 33.867" xmlns="http://www.w3.org/2000/svg">
 <defs>
  <linearGradient id="linearGradient965" x1="48" x2="464" y1="44" y2="44" gradientTransform="matrix(.066145 0 0 .057702 -1.0583 11.917)" gradientUnits="userSpaceOnUse">
   <stop stop-color="#77767b" offset="0"/>
   <stop stop-color="#c0bfbc" offset=".05"/>
   <stop stop-color="#9a9996" offset=".1"/>
   <stop stop-color="#9a9996" offset=".9"/>
   <stop stop-color="#c0bfbc" offset=".95"/>
   <stop stop-color="#77767b" offset="1"/>
  </linearGradient>
  <radialGradient id="radialGradient1030" cx="64" cy="194.19" r="44" gradientTransform="matrix(-1.2507 1.7767e-7 -8.017e-8 -.36634 64.174 49.81)" gradientUnits="userSpaceOnUse">
   <stop stop-color="#fff" offset="0"/>
   <stop stop-color="#fff" stop-opacity=".094118" offset="1"/>
  </radialGradient>
  <linearGradient id="linearGradient1950" x1="70.347" x2="70.347" y1="245.4" y2="269.14" gradientTransform="matrix(.26458 0 0 .26458 -1.0583 -49.741)" gradientUnits="userSpaceOnUse">
   <stop stop-color="#2d2839" offset="0"/>
   <stop stop-color="#282433" offset="1"/>
  </linearGradient>
 </defs>
 <path id="canvas" class="icon-canvas-transparent" d="m8.4667 8.4667h-8.4667v-8.4667h8.4667z" fill="none" style="mix-blend-mode:normal"/>
 <g stroke-width=".26458">
  <rect x="2.1166" y="4.7624" width="27.516" height="21.696" rx="2.1166" ry="1.8464" enable-background="new" fill="url(#linearGradient965)" style="mix-blend-mode:normal;paint-order:normal"/>
  <rect x="2.1166" y="2.1166" width="27.516" height="22.225" rx="2.1166" ry="1.8521" enable-background="new" fill="#deddda" style="mix-blend-mode:normal;paint-order:normal"/>
  <rect transform="scale(1,-1)" x="3.175" y="-23.283" width="25.4" height="20.108" rx="1.0583" ry=".91399" enable-background="new" fill="#241f31" style="mix-blend-mode:normal;paint-order:normal"/>
  <rect transform="scale(-1)" x="-27.516" y="-22.225" width="23.283" height="17.462" enable-background="new" fill="url(#radialGradient1030)" opacity=".05" style="mix-blend-mode:normal;paint-order:normal"/>
 </g>
 <g transform="matrix(.26458 0 0 .26458 -.52916 -1.5874)" fill="#fff" style="mix-blend-mode:normal">
  <path d="m36.001 32.212-12.001-6.9393v4.3083l8.3169 4.2183v0.12957l-8.3169 4.7639v4.3083l12.001-7.4849z" stroke-width=".8834" style="font-feature-settings:normal;font-variant-caps:normal;font-variant-ligatures:normal;font-variant-numeric:normal"/>
  <path d="m40.001 46.001 2e-6 4h14l-2e-6 -4z" stroke-width=".93542" style="font-feature-settings:normal;font-variant-caps:normal;font-variant-ligatures:normal;font-variant-numeric:normal"/>
 </g>
 <path d="m25.4 14.816h1.0583v1.0583h-1.0583zm-2.1166 0h1.0583v1.0583h-1.0583zm-2.1166 0h1.0583v1.0583h-1.0583zm-2.1166 0h1.0583v1.0583h-1.0583zm-2.1166 0h1.0583v1.0583h-1.0583zm-2.1166 0h1.0583v1.0583h-1.0583zm-2.1166 0h1.0583v1.0583h-1.0583zm-2.1166 0h1.0583v1.0583h-1.0583zm-2.1166 0h1.0583v1.0583h-1.0583zm-2.1166 0h1.0583v1.0583h-1.0583zm-2.1166 0h1.0583v1.0583h-1.0583zm22.225 1.0583h1.0583v1.0583h-1.0583zm-2.1166 0h1.0583v1.0583h-1.0583zm-2.1166 0h1.0583v1.0583h-1.0583zm-2.1166 0h1.0583v1.0583h-1.0583zm-2.1166 0h1.0583v1.0583h-1.0583zm-2.1166 0h1.0583v1.0583h-1.0583zm-2.1166 0h1.0583v1.0583h-1.0583zm-2.1166 0h1.0583v1.0583h-1.0583zm-2.1166 0h1.0583v1.0583h-1.0583zm-2.1166 0h1.0583v1.0583h-1.0583zm-2.1166 0h1.0583v1.0583h-1.0583zm20.108 1.0583h1.0583v1.0583h-1.0583zm-2.1166 0h1.0583v1.0583h-1.0583zm-2.1166 0h1.0583v1.0583h-1.0583zm-2.1166 0h1.0583v1.0583h-1.0583zm-2.1166 0h1.0583v1.0583h-1.0583zm-2.1166 0h1.0583v1.0583h-1.0583zm-2.1166 0h1.0583v1.0583h-1.0583zm-2.1166 0h1.0583v1.0583h-1.0583zm-2.1166 0h1.0583v1.0583h-1.0583zm-2.1166 0h1.0583v1.0583h-1.0583zm-2.1166 0h1.0583v1.0583h-1.0583zm22.225 1.0583h1.0583v1.0583h-1.0583zm-2.1166 0h1.0583v1.0583h-1.0583zm-2.1166 0h1.0583v1.0583h-1.0583zm-2.1166 0h1.0583v1.0583h-1.0583zm-2.1166 0h1.0583v1.0583h-1.0583zm-2.1166 0h1.0583v1.0583h-1.0583zm-2.1166 0h1.0583v1.0583h-1.0583zm-2.1166 0h1.0583v1.0583h-1.0583zm-2.1166 0h1.0583v1.0583h-1.0583zm-2.1166 0h1.0583v1.0583h-1.0583zm-2.1166 0h1.0583v1.0583h-1.0583zm20.108 1.0583h1.0583v1.0583h-1.0583zm-2.1166 0h1.0583v1.0583h-1.0583zm-2.1166 0h1.0583v1.0583h-1.0583zm-2.1166 0h1.0583v1.0583h-1.0583zm-2.1166 0h1.0583v1.0583h-1.0583zm-2.1166 0h1.0583v1.0583h-1.0583zm-2.1166 0h1.0583v1.0583h-1.0583zm-2.1166 0h1.0583v1.0583h-1.0583zm-2.1166 0h1.0583v1.0583h-1.0583zm-2.1166 0h1.0583v1.0583h-1.0583zm-2.1166 0h1.0583v1.0583h-1.0583zm22.225 1.0583h1.0583v1.0583h-1.0583zm-2.1166 0h1.0583v1.0583h-1.0583zm-2.1166 0h1.0583v1.0583h-1.0583zm-2.1166 0h1.0583v1.0583h-1.0583zm-2.1166 0h1.0583v1.0583h-1.0583zm-2.1166 0h1.0583v1.0583h-1.0583zm-2.1166 0h1.0583v1.0583h-1.0583zm-2.1166 0h1.0583v1.0583h-1.0583zm-2.1166 0h1.0583v1.0583h-1.0583zm-2.1166 0h1.0583v1.0583h-1.0583zm-2.1166 0h1.0583v1.0583h-1.0583zm20.108 1.0583h1.0583v1.0583h-1.0583zm-2.1166 0h1.0583v1.0583h-1.0583zm-2.1166 0h1.0583v1.0583h-1.0583zm-2.1166 0h1.0583v1.0583h-1.0583zm-2.1166 0h1.0583v1.0583h-1.0583zm-2.1166 0h1.0583v1.0583h-1.0583zm-2.1166 0h1.0583v1.0583h-1.0583zm-2.1166 0h1.0583v1.0583h-1.0583zm-2.1166 0h1.0583v1.0583h-1.0583zm-2.1166 0h1.0583v1.0583h-1.0583zm-2.1166 0h1.0583v1.0583h-1.0583z" fill="url(#linearGradient1950)" stroke-width=".26458" style="mix-blend-mode:normal;paint-order:normal"/>
 <path class="icon-white" d="m32.117 24.408c-0.37041 1.1144-1.1619 2.5791-3.1747 2.5791h-1.6912v1.9187c0 0.95778-0.12594 2.4205-2.9072 3.226-0.95672 0.27622-1.8288 0.41169-2.7156 0.41169-0.8784 0-1.6901-0.13546-2.6373-0.41486-2.0288-0.59583-3.1154-1.6025-3.1168-3.2228v-1.6542h-1.3737c-1.797 0-3.0443-0.94296-3.5448-3.0268-0.49635-2.0595-0.49635-3.1972 0-5.2567 0.4773-1.9907 2.0038-3.0935 3.9989-3.0935h0.91862v-1.796c0-2.1219 0.88264-2.8606 3.2321-3.2766 0.77046-0.13546 1.56-0.21901 2.4299-0.21901h0.0032c0.97471 0 1.8362 0.07613 2.685 0.21795 1.9219 0.32067 3.0279 1.5272 3.0279 3.2787v1.7949h1.6912c1.2086 0 2.5282 0.37676 3.199 3.0818 0.54503 2.1928 0.53868 3.7655-0.02434 5.4514z" fill="#fff" stroke-width=".26458" style="mix-blend-mode:normal"/>
 <path id="path1948_3_" class="st0" d="m21.476 11.377c-0.84274 0.0042-1.648 0.07514-2.3556 0.19896-2.0865 0.36406-2.4409 1.125-2.4515 2.5294v1.7691h5.027v0.79374h-6.8912c-1.4324 0-2.6879 0.7603-3.0805 2.3774-0.45246 1.8531-0.47283 3.0099 0 4.9455 0.3506 1.4404 1.1869 2.4665 2.6204 2.4665h1.5303v-2.2231c0-1.6065 1.5726-3.0686 3.2451-3.0686h4.9246c1.2114 0 2.4134-1.1613 2.4134-2.4284v-4.6344c0-1.3187-1.0753-2.3093-2.4134-2.5294-0.84703-0.13758-1.7262-0.20002-2.569-0.19685zm-2.6654 1.4922c0.50929 0 0.92529 0.41698 0.92529 0.93026 0.0024 0.50728-0.4114 0.9209-0.92529 0.92497-0.51442-0.0029-0.92886-0.41722-0.92529-0.92497 0-0.51329 0.41386-0.93026 0.92529-0.93026z" fill="#366a96" stroke-width="1.0652" style="mix-blend-mode:normal"/>
 <path id="path1950_3_" class="st1" d="m27.252 16.668v2.0447c0 1.6753-1.5552 3.2469-3.1755 3.2469h-4.8609c-1.3314 0-2.5468 0.97789-2.5468 2.3114v4.6344c0 1.3187 1.261 2.0944 2.5468 2.4733 1.5409 0.45296 3.0173 0.53445 4.8609 0 1.2255-0.35454 2.3817-1.0689 2.3817-2.4733v-1.9187h-4.7624v-0.79374h7.2468c1.4139 0 1.941-0.74717 2.4331-2.2278 0.50799-1.524 0.48683-2.9908 0-4.9455-0.34925-1.4076-1.017-2.3516-2.4331-2.3516zm-2.8696 11.619c0.50482 0 0.91333 0.4138 0.91333 0.92497 0.0047 0.5091-0.40422 0.92561-0.91333 0.93026-0.50887-0.0052-0.91743-0.4214-0.91333-0.93026-0.0024-0.50728 0.40605-0.9209 0.91333-0.92497z" fill="#ffc836" stroke-width="1.0583" style="mix-blend-mode:normal"/>
</svg>
