<?xml version="1.0" encoding="UTF-8"?>
<svg width="16" height="16" version="1.1" xmlns="http://www.w3.org/2000/svg" xmlns:cc="http://creativecommons.org/ns#" xmlns:dc="http://purl.org/dc/elements/1.1/" xmlns:rdf="http://www.w3.org/1999/02/22-rdf-syntax-ns#">
 <metadata>
  <rdf:RDF>
   <cc:Work rdf:about="">
    <dc:format>image/svg+xml</dc:format>
    <dc:type rdf:resource="http://purl.org/dc/dcmitype/StillImage"/>
    <dc:title>Gnome Symbolic Icon Theme</dc:title>
   </cc:Work>
  </rdf:RDF>
 </metadata>
 <title>Gnome Symbolic Icon Theme</title>
 <g transform="translate(-122 -490)">
  <path transform="translate(122 490)" d="m2.1875 0c-1.2055 0-2.1875 1.0167-2.1875 2.2188v10.562c0 1.202 0.98197 2.2188 2.1875 2.2188h3.957c-0.09366-0.18276-0.14453-0.39371-0.14453-0.63867v-1.3613h-3.8125c-0.12281 0-0.1875-0.0809-0.1875-0.21875v-10.562c0-0.13785 0.0647-0.21875 0.1875-0.21875h11.625c0.1228 0 0.1875 0.0809 0.1875 0.21875v3.7812c1.672 0 2 0.87891 2 0.87891v-4.6602c0-1.202-0.98196-2.2188-2.1875-2.2188h-11.625zm7.0781 3c-0.4971-0.0058988-1.0175 0.060684-1.5957 0.21484-0.76873 0.20449-1.7695 0.61811-1.7695 1.4277v1.3535h3.0469v0.99805h-2.8047c-1.7822 0-3.1224 0.79761-3.1426 2.5137 0 1.9223 1.3511 2.4922 2.2695 2.4922h0.73047v-1c0-0.96587 0.67901-2 1.6953-2h3.0234c0.83544 0 1.2812-0.53207 1.2812-1.3008v-3.0605c0-0.76033-0.47409-1.2057-1.2812-1.4238-0.48329-0.13056-0.95602-0.20894-1.4531-0.21484zm-1.8555 0.96875c0.3154 0 0.57227 0.24137 0.57227 0.53711 0 0.2947-0.25687 0.5332-0.57227 0.5332-0.31655 0-0.57422-0.2385-0.57422-0.5332 0-0.29574 0.25767-0.53711 0.57422-0.53711zm5.5898 3.0312v1c0 0.96587-0.679 2-1.6953 2h-3.0234c-0.83544 0-1.2812 0.53207-1.2812 1.3008v3.0605c0 0.76034 0.47409 1.2057 1.2812 1.4238 0.96658 0.26113 1.8923 0.30832 3.0488 0 0.76872-0.20449 1.7695-0.61811 1.7695-1.4277v-1.3535h-3.0469v-0.99805h2.8047c1.7822 0 3.1224-0.79761 3.1426-2.5137 0-1.9224-1.3511-2.4922-2.2695-2.4922h-0.73047zm-1.4102 6.9609c0.31654 0 0.57422 0.2385 0.57422 0.5332 0 0.29575-0.25768 0.53711-0.57422 0.53711-0.3154 0-0.57227-0.24136-0.57227-0.53711 0-0.2947 0.25687-0.5332 0.57227-0.5332z" color="#bebebe" fill="#bebebe" style="text-decoration-line:none;text-indent:0;text-transform:none"/>
 </g>
</svg>
