<?xml version="1.0" encoding="UTF-8"?>
<svg width="128" height="128" version="1.1" viewBox="0 0 128 128" xmlns="http://www.w3.org/2000/svg">
 <defs>
  <linearGradient id="path1948_1_" x1="522.21" x2="540.9" y1="-288.67" y2="-304.75" gradientTransform="matrix(2.2795 0 0 -2.272 -1145.3 -606.66)" gradientUnits="userSpaceOnUse">
   <stop stop-color="#5a9fd4" offset="0"/>
   <stop stop-color="#306998" offset="1"/>
  </linearGradient>
  <linearGradient id="path1950_1_" x1="548.13" x2="541.45" y1="-314.49" y2="-305.04" gradientTransform="matrix(2.25,0,0,-2.272,-1129.1,-606.76)" gradientUnits="userSpaceOnUse">
   <stop stop-color="#ffd43b" offset="0"/>
   <stop stop-color="#ffe873" offset="1"/>
  </linearGradient>
 </defs>
 <style>.icon-canvas-transparent{opacity:0;fill:#f6f6f6}.icon-white{fill:#fff}.icon-vso-bg{fill:#656565}.icon-visualstudio-online{fill:#007acc}.icon-vs-bg{fill:#424242}.icon-vs-green{fill:#393}.st0{fill:url(#path1948_1_)}.st1{fill:url(#path1950_1_)}</style>
 <path id="canvas" class="icon-canvas-transparent" d="m32 32h-32v-32h32z"/>
 <g id="iconBg" transform="matrix(4,0,0,4,5.3181e-5,0)">
  <path class="icon-visualstudio-online" d="m30 4h-28v-2h28z"/>
  <path class="icon-vso-bg" d="m29 4v21h-26v-21h-1v22h28v-22z"/>
  <path class="icon-vs-bg" d="m10 4h-7v21h26v-21z"/>
 </g>
 <path class="icon-white" d="m116.11 11.507 1.716 1.716-0.56 0.568-1.72-1.72-1.72 1.72-0.56-0.568 1.716-1.716-1.716-1.716 0.564-0.568 1.716 1.72 1.72-1.72 0.564 0.568zm-6.164-2.4h-4.8v4.8h4.8zm-4 0.8h3.2v3.2h-3.2zm-4.556 3.2h-4.0002v0.8h4.0002z"/>
 <path class="icon-vs-green" d="m64 56h-44v-4h44.124c-0.056 0.176-0.124 4-0.124 4zm-16-20h-28v4h28zm-28 32v4h32v-4z"/>
 <path class="icon-white" d="m125.39 96.252c-1.4 4.212-4.3914 9.748-11.999 9.748h-6.392v7.252c0 3.62-0.476 9.1486-10.988 12.193-3.616 1.044-6.912 1.556-10.264 1.556-3.32 0-6.388-0.512-9.968-1.568-7.668-2.252-11.775-6.0566-11.78-12.181v-6.252h-5.192c-6.792 0-11.506-3.564-13.398-11.44-1.876-7.784-1.876-12.084 0-19.868 1.804-7.524 7.5736-11.692 15.114-11.692h3.472v-6.788c0-8.02 3.336-10.812 12.216-12.384 2.912-0.512 5.896-0.82775 9.184-0.82775h0.012c3.684 0 6.94 0.28775 10.148 0.82375 7.264 1.212 11.444 5.7722 11.444 12.392v6.784h6.392c4.568 0 9.5554 1.424 12.091 11.648 2.06 8.288 2.036 14.232-0.092 20.604z" fill="#fff"/>
 <path id="path1948_3_" class="st0" d="m85.169 47.002c-3.1852 0.016-6.2286 0.284-8.9032 0.752-7.886 1.376-9.2256 4.2522-9.2655 9.56v6.6864h19v3h-26.046c-5.414 0-10.159 2.8736-11.643 8.9856-1.7101 7.004-1.7871 11.376 0 18.692 1.3251 5.4441 4.486 9.3224 9.9041 9.3224h5.784v-8.4024c0-6.072 5.9437-11.598 12.265-11.598h18.613c4.5787 0 9.1217-4.3891 9.1217-9.1784v-17.516c0-4.984-4.0643-8.728-9.1217-9.56-3.2014-0.52-6.5244-0.756-9.7096-0.744zm-10.074 5.64c1.9249 0 3.4972 1.576 3.4972 3.516 9e-3 1.9173-1.5549 3.4806-3.4972 3.496-1.9443-0.01101-3.5107-1.5769-3.4972-3.496 0-1.94 1.5642-3.516 3.4972-3.516z" fill="url(#path1948_1_)" stroke-width="4.0261"/>
 <path id="path1950_3_" class="st1" d="m107 67v7.728c0 6.332-5.878 12.272-12.002 12.272h-18.372c-5.032 0-9.626 3.696-9.626 8.736v17.516c0 4.984 4.766 7.916 9.626 9.348 5.824 1.712 11.404 2.02 18.372 0 4.632-1.34 9.002-4.04 9.002-9.348v-7.252h-18v-3h27.39c5.344 0 7.336-2.824 9.196-8.42 1.92-5.76 1.84-11.304 0-18.692-1.32-5.32-3.844-8.888-9.196-8.888zm-10.846 43.916c1.908 0 3.452 1.564 3.452 3.496 0.01776 1.9242-1.5278 3.4984-3.452 3.516-1.9233-0.0198-3.4675-1.5927-3.452-3.516-0.0089-1.9173 1.5347-3.4806 3.452-3.496z" fill="url(#path1950_1_)" stroke-width="4"/>
</svg>
