<?xml version="1.0" encoding="UTF-8"?>
<svg width="128" height="128" version="1.1" viewBox="0 0 128 128" xmlns="http://www.w3.org/2000/svg">
 <defs>
  <linearGradient id="path1948_1_" x1="522.21" x2="540.9" y1="-288.67" y2="-304.75" gradientTransform="matrix(2.25 0 0 -2.272 -1129.1 -606.76)" gradientUnits="userSpaceOnUse">
   <stop stop-color="#5a9fd4" offset="0"/>
   <stop stop-color="#306998" offset="1"/>
  </linearGradient>
  <linearGradient id="path1950_1_" x1="548.13" x2="541.45" y1="-314.49" y2="-305.04" gradientTransform="matrix(2.25 0 0 -2.272 -1129.1 -606.76)" gradientUnits="userSpaceOnUse">
   <stop stop-color="#ffd43b" offset="0"/>
   <stop stop-color="#ffe873" offset="1"/>
  </linearGradient>
 </defs>
 <style>.icon-canvas-transparent{opacity:0;fill:#f6f6f6}.icon-white{fill:#fff}.icon-vso-bg{fill:#656565}.icon-visualstudio-online{fill:#007acc}.icon-vs-bg{fill:#424242}.icon-vs-green{fill:#393}.st0{fill:url(#path1948_1_)}.st1{fill:url(#path1950_1_)}</style>
 <path id="canvas" class="icon-canvas-transparent" d="m32 32h-32v-32h32z"/>
 <g id="iconBg" transform="matrix(4,0,0,4,5.3181e-5,0)">
  <path class="icon-visualstudio-online" d="m30 4h-28v-2h28z"/>
  <path class="icon-vso-bg" d="m29 4v21h-26v-21h-1v22h28v-22z"/>
  <path class="icon-vs-bg" d="m10 4h-7v21h26v-21z"/>
 </g>
 <g id="iconFg" transform="matrix(4,0,0,4,5.3181e-5,0)">
  <path class="icon-white" d="m29.141 3 0.429 0.429-0.14 0.142-0.43-0.43-0.43 0.43-0.14-0.142 0.429-0.429-0.429-0.429 0.141-0.142 0.429 0.43 0.43-0.43 0.141 0.142zm-1.541-0.6h-1.2v1.2h1.2zm-1 0.2h0.8v0.8h-0.8zm-1.139 0.8h-1v0.2h1z"/>
  <path class="icon-vs-green" d="m16 14h-11v-1h11.031c-0.014 0.044-0.031 1-0.031 1zm-4-5h-7v1h7zm-7 8v1h8v-1z"/>
 </g>
 <g stroke-width="4">
  <path class="icon-white" d="m126.38 96.252c-1.4 4.212-4.004 11.748-12.988 11.748h-5.396v5.252c0 3.62-1.472 10.148-11.984 13.192-3.616 1.044-6.912 1.556-10.264 1.556-3.32 0-6.388-0.512-9.968-1.568-7.668-2.252-11.784-7.056-11.784-13.18v-5.252h-5.188c-6.792 0-11.772-4.564-13.664-12.44-1.876-7.784-1.876-12.084 0-19.868 1.804-7.524 7.84-11.692 15.38-11.692h3.472v-6.788c0-8.02 3.336-11.38 12.216-12.952 2.912-0.512 5.896-0.26 9.184-0.26h0.012c3.684 0 6.94-0.28 10.148 0.256 7.264 1.212 12.44 6.34 12.44 12.96v6.784h5.396c4.568 0 10.544 1.424 13.08 11.648 2.06 8.288 2.036 14.232-0.092 20.604z" fill="#fff"/>
  <path id="path1948_3_" class="st0" d="m85.416 46.9c-3.144 0.016-6.148 0.284-8.788 0.752-7.784 1.376-9.196 4.252-9.196 9.56v7.012h18.392v2.336h-25.296c-5.344 0-10.028 3.212-11.492 9.324-1.688 7.004-1.764 11.376 0 18.692 1.308 5.444 4.428 9.324 9.776 9.324h6.324v-8.404c0-6.072 5.252-11.428 11.492-11.428h18.372c5.116 0 9.196-4.212 9.196-9.348v-17.516c0-4.984-4.204-8.728-9.196-9.56-3.16-0.52-6.44-0.756-9.584-0.744zm-9.944 5.64c1.9 0 3.452 1.576 3.452 3.516a3.48 3.48 0 0 1-3.452 3.496 3.472 3.472 0 0 1-3.452-3.496c0-1.94 1.544-3.516 3.452-3.516z" fill="url(#path1948_1_)"/>
  <path id="path1950_3_" class="st1" d="m106.49 66.56v8.168c0 6.332-5.368 11.66-11.492 11.66h-18.372c-5.032 0-9.196 4.308-9.196 9.348v17.516c0 4.984 4.336 7.916 9.196 9.348 5.824 1.712 11.404 2.02 18.372 0 4.632-1.34 9.196-4.04 9.196-9.348v-7.012h-18.372v-2.336h27.568c5.344 0 7.336-3.728 9.196-9.324 1.92-5.76 1.84-11.304 0-18.692-1.32-5.32-3.844-9.324-9.196-9.324h-6.9zm-10.336 44.356c1.908 0 3.452 1.564 3.452 3.496a3.484 3.484 0 0 1-3.452 3.516 3.488 3.488 0 0 1-3.452-3.516 3.48 3.48 0 0 1 3.452-3.496z" fill="url(#path1950_1_)"/>
 </g>
</svg>
