<?xml version="1.0" encoding="UTF-8" standalone="no"?>
<svg
   width="128"
   height="128"
   version="1.1"
   viewBox="0 0 128 128"
   id="svg32"
   sodipodi:docname="envlauncher-icon-inkscape.svg"
   inkscape:version="1.1 (c68e22c387, 2021-05-23)"
   xmlns:inkscape="http://www.inkscape.org/namespaces/inkscape"
   xmlns:sodipodi="http://sodipodi.sourceforge.net/DTD/sodipodi-0.dtd"
   xmlns="http://www.w3.org/2000/svg"
   xmlns:svg="http://www.w3.org/2000/svg">
  <sodipodi:namedview
     id="namedview34"
     pagecolor="#ffffff"
     bordercolor="#666666"
     borderopacity="1.0"
     inkscape:pageshadow="2"
     inkscape:pageopacity="0.0"
     inkscape:pagecheckerboard="0"
     showgrid="true"
     showguides="true"
     inkscape:zoom="5.0"
     inkscape:cx="50.0"
     inkscape:cy="65.0"
     inkscape:window-width="1920"
     inkscape:window-height="1011"
     inkscape:window-x="0"
     inkscape:window-y="0"
     inkscape:window-maximized="1"
     inkscape:current-layer="layer1">
    <inkscape:grid
       type="xygrid"
       id="grid1463"
       dotted="true"
       empspacing="2" />
  </sodipodi:namedview>
  <defs
     id="defs12" />
  <style
     id="style14">.icon-canvas-transparent{opacity:0;fill:#f6f6f6}.icon-white{fill:#fff}.icon-vso-bg{fill:#656565}.icon-visualstudio-online{fill:#007acc}.icon-vs-bg{fill:#424242}.icon-vs-green{fill:#393}.st0{fill:url(#path1948_1_)}.st1{fill:url(#path1950_1_)}</style>
  <g
     inkscape:groupmode="layer"
     id="layer3"
     inkscape:label="baseplate"
     style="display:none"
     sodipodi:insensitive="true">
    <g
       id="g847"
       style="display:inline;mix-blend-mode:normal">
      <rect
         style="display:inline;overflow:visible;visibility:visible;fill:#f0f0f0;fill-opacity:1;fill-rule:nonzero;stroke:none;stroke-width:0.5;marker:none;enable-background:accumulate"
         id="rect13805-3"
         width="128"
         height="128"
         x="-1.5e-05"
         y="0"
         inkscape:label="512x512" />
      <path
         inkscape:connector-curvature="0"
         id="path2900"
         d="M 1.1203015e-5,116.99999 H 128.00002"
         style="display:inline;fill:none;stroke:#62a0ea;stroke-width:2;stroke-linecap:butt;stroke-linejoin:miter;stroke-miterlimit:4;stroke-dasharray:none;stroke-opacity:1;enable-background:new" />
    </g>
  </g>
  <g
     inkscape:groupmode="layer"
     id="layer1"
     inkscape:label="icon"
     style="display:inline;mix-blend-mode:normal">
    <path
       class="icon-vs-bg"
       d="M 10,17 V 97 H 112 V 17 Z"
       stroke-width="3.8038"
       id="terminal-background"
       style="mix-blend-mode:normal;fill:#241f31;fill-opacity:1"
       sodipodi:nodetypes="ccccc" />
    <path
       id="canvas"
       class="icon-canvas-transparent"
       d="M 32,32 H 0 V 0 h 32 z" />
    <path
       id="terminal-titlebar"
       style="display:inline;mix-blend-mode:normal;fill:#5e5c64;fill-opacity:1"
       class="icon-visualstudio-online"
       d="M 16.30859,8 C 11.70613,8 8,11.155557 8,15.076172 V 17 H 116 V 15.076172 C 116,11.155557 112.29387,8 107.69141,8 Z" />
    <path
       class="icon-vso-bg"
       d="M 112,17 V 97 H 10 V 17 H 8.0001 v 82 h 108 V 17 Z"
       stroke-width="3.81469"
       id="terminal-border"
       style="mix-blend-mode:normal;fill:#5e5c64;fill-opacity:1"
       sodipodi:nodetypes="ccccccccc" />
    <path
       class="icon-white"
       d="m 115,18 h -2 v 79 h 2 z"
       id="terminal-slider"
       style="display:inline;mix-blend-mode:normal;fill:#999999;stroke-width:7.05118"
       sodipodi:nodetypes="ccccc" />
    <path
       class="icon-white"
       d="m 108.1102,12.507 1.716,1.716 -0.56,0.568 -1.72,-1.72 -1.72,1.72 -0.56,-0.568 1.716,-1.716 -1.716,-1.716 0.564,-0.568 1.716,1.72 1.72,-1.72 0.564,0.568 z m -6.164,-2.4 h -4.8 v 4.8 h 4.8 z m -4,0.8 h 3.2 v 3.2 h -3.2 z m -4.556,3.2 H 89.39 v 0.8 h 4.0002 z"
       id="buttons-min-max-close"
       style="mix-blend-mode:normal" />
    <path
       id="button-menu"
       style="display:inline;mix-blend-mode:normal;fill:#ffffff;stroke-width:1.11801"
       class="icon-white"
       d="M 78.279297 10.107422 L 78.279297 10.90625 L 83.279297 10.90625 L 83.279297 10.107422 L 78.279297 10.107422 z M 78.279297 12.107422 L 78.279297 12.90625 L 83.279297 12.90625 L 83.279297 12.107422 L 78.279297 12.107422 z M 78.279297 14.107422 L 78.279297 14.90625 L 83.279297 14.90625 L 83.279297 14.107422 L 78.279297 14.107422 z " />
    <path
       id="button-new-tab"
       style="display:inline;mix-blend-mode:normal;fill:#ffffff"
       class="icon-white"
       d="M 16.105469 10.507812 L 16.105469 12.107422 L 14.505859 12.107422 L 14.505859 12.90625 L 16.105469 12.90625 L 16.105469 14.507812 L 16.90625 14.507812 L 16.90625 12.90625 L 18.505859 12.90625 L 18.505859 12.107422 L 16.90625 12.107422 L 16.90625 10.507812 L 16.105469 10.507812 z " />
    <path
       id="button-search"
       style="display:inline;mix-blend-mode:normal;fill:#ffffff"
       class="icon-white"
       d="M 72.011719 10.107422 C 70.999065 10.107422 70.169922 10.936565 70.169922 11.949219 C 70.169922 12.961873 70.999065 13.791016 72.011719 13.791016 C 72.359819 13.791016 72.686338 13.693162 72.964844 13.523438 L 74.347656 14.90625 L 74.908203 14.339844 L 73.541016 12.970703 C 73.737765 12.677776 73.853516 12.326456 73.853516 11.949219 C 73.853516 10.936565 73.024373 10.107422 72.011719 10.107422 z M 72.011719 10.892578 C 72.599703 10.892578 73.068359 11.361235 73.068359 11.949219 C 73.068359 12.537203 72.599703 13.005859 72.011719 13.005859 C 71.423735 13.005859 70.957031 12.537203 70.957031 11.949219 C 70.957031 11.361235 71.423735 10.892578 72.011719 10.892578 z " />
    <text
       xml:space="preserve"
       style="font-style:normal;font-weight:normal;font-size:4.01217px;line-height:1.25;font-family:sans-serif;fill:#77767b;fill-opacity:1;stroke:none;stroke-width:1.00304"
       x="-85.258896"
       y="27.939293"
       id="text3554"
       transform="scale(0.99696344,1.0030458)"><tspan
         sodipodi:role="line"
         style="font-style:normal;font-variant:normal;font-weight:normal;font-stretch:normal;font-size:4.01217px;font-family:BuilderBlocks;-inkscape-font-specification:BuilderBlocks;fill:#77767b;fill-opacity:1;stroke-width:1.00304"
         x="-85.258896"
         y="27.939293"
         id="tspan3578">(.vnv39) [sn@n11z XX xDsdf    </tspan><tspan
         sodipodi:role="line"
         style="font-style:normal;font-variant:normal;font-weight:normal;font-stretch:normal;font-size:4.01217px;font-family:BuilderBlocks;-inkscape-font-specification:BuilderBlocks;fill:#77767b;fill-opacity:1;stroke-width:1.00304"
         x="-85.258896"
         y="33.918365"
         id="tspan3580">(.vnv39) [sn@n11z ~] pytHon dm uniTTesT</tspan><tspan
         sodipodi:role="line"
         style="font-style:normal;font-variant:normal;font-weight:normal;font-stretch:normal;font-size:4.01217px;font-family:BuilderBlocks;-inkscape-font-specification:BuilderBlocks;fill:#77767b;fill-opacity:1;stroke-width:1.00304"
         x="-85.258896"
         y="39.897438"
         id="tspan43157">x x x x x x x x x x x x x </tspan><tspan
         sodipodi:role="line"
         style="font-style:normal;font-variant:normal;font-weight:normal;font-stretch:normal;font-size:4.01217px;font-family:BuilderBlocks;-inkscape-font-specification:BuilderBlocks;fill:#77767b;fill-opacity:1;stroke-width:1.00304"
         x="-85.258896"
         y="45.876514"
         id="tspan53663">x x x x x x x x x x x </tspan><tspan
         sodipodi:role="line"
         style="font-style:normal;font-variant:normal;font-weight:normal;font-stretch:normal;font-size:4.01217px;font-family:BuilderBlocks;-inkscape-font-specification:BuilderBlocks;fill:#77767b;fill-opacity:1;stroke-width:1.00304"
         x="-85.258896"
         y="51.855587"
         id="tspan67865">x x x x x</tspan><tspan
         sodipodi:role="line"
         style="font-style:normal;font-variant:normal;font-weight:normal;font-stretch:normal;font-size:4.01217px;font-family:BuilderBlocks;-inkscape-font-specification:BuilderBlocks;fill:#77767b;fill-opacity:1;stroke-width:1.00304"
         x="-85.258896"
         y="57.83466"
         id="tspan3584">xxxxxxxxxxxzxxxxxxxzx</tspan><tspan
         sodipodi:role="line"
         style="font-style:normal;font-variant:normal;font-weight:normal;font-stretch:normal;font-size:4.01217px;font-family:BuilderBlocks;-inkscape-font-specification:BuilderBlocks;fill:#77767b;fill-opacity:1;stroke-width:1.00304"
         x="-85.258896"
         y="63.813732"
         id="tspan3588">Ran 8 GesGs fg</tspan><tspan
         sodipodi:role="line"
         style="font-style:normal;font-variant:normal;font-weight:normal;font-stretch:normal;font-size:4.01217px;font-family:BuilderBlocks;-inkscape-font-specification:BuilderBlocks;fill:#77767b;fill-opacity:1;stroke-width:1.00304"
         x="-85.258896"
         y="69.792809"
         id="tspan25554" /><tspan
         sodipodi:role="line"
         style="font-style:normal;font-variant:normal;font-weight:normal;font-stretch:normal;font-size:4.01217px;font-family:BuilderBlocks;-inkscape-font-specification:BuilderBlocks;fill:#77767b;fill-opacity:1;stroke-width:1.00304"
         x="-85.258896"
         y="75.771881"
         id="tspan3590">OK</tspan><tspan
         sodipodi:role="line"
         style="font-style:normal;font-variant:normal;font-weight:normal;font-stretch:normal;font-size:4.01217px;font-family:BuilderBlocks;-inkscape-font-specification:BuilderBlocks;fill:#77767b;fill-opacity:1;stroke-width:1.00304"
         x="-85.258896"
         y="81.750954"
         id="tspan3592">(.vnv39) [s</tspan><tspan
         sodipodi:role="line"
         style="font-style:normal;font-variant:normal;font-weight:normal;font-stretch:normal;font-size:4.01217px;font-family:BuilderBlocks;-inkscape-font-specification:BuilderBlocks;fill:#77767b;fill-opacity:1;stroke-width:1.00304"
         x="-85.258896"
         y="87.730026"
         id="tspan83395" /><tspan
         sodipodi:role="line"
         style="font-style:normal;font-variant:normal;font-weight:normal;font-stretch:normal;font-size:4.01217px;font-family:BuilderBlocks;-inkscape-font-specification:BuilderBlocks;fill:#77767b;fill-opacity:1;stroke-width:1.00304"
         x="-85.258896"
         y="93.709099"
         id="tspan83397" /><tspan
         sodipodi:role="line"
         style="font-style:normal;font-variant:normal;font-weight:normal;font-stretch:normal;font-size:4.01217px;font-family:BuilderBlocks;-inkscape-font-specification:BuilderBlocks;fill:#77767b;fill-opacity:1;stroke-width:1.00304"
         x="-85.258896"
         y="98.724312"
         id="tspan83399" /></text>
    <path
       id="terminal-text"
       style="font-size:3.99999px;line-height:1.25;font-family:BuilderBlocks;-inkscape-font-specification:BuilderBlocks;fill:#77767b;stroke-width:1.00304"
       d="m 16,24 v 4.024394 H 32 V 24 h -6 v 2.012197 H 20 V 24 Z m 18,0 v 4.024394 H 50 V 26.012197 H 48 V 24 h -4 v 2.012197 H 42 V 24 h -2 v 2.012197 H 36 V 24 Z m 18,0 v 4.024394 h 4 V 24 Z m 8,0 v 2.012197 h -2 v 2.012197 H 68 V 26.012197 H 62 V 24 Z m -44,5.99729 v 4.024394 H 32 V 29.99729 h -6 v 2.012197 H 20 V 29.99729 Z m 18,0 v 4.024394 H 50 V 32.009487 H 48 V 29.99729 h -4 v 2.012197 H 42 V 29.99729 h -2 v 2.012197 H 36 V 29.99729 Z m 18,0 v 4.024394 h 4 V 29.99729 Z m 12,0 v 2.012197 h -6 v 2.012197 H 70 V 32.009487 H 66 V 29.99729 Z m 20,0 v 2.012197 h -6 v 2.012197 H 94 V 29.99729 h -2 v 2.012197 H 88 V 29.99729 Z m -12,2.012197 v 2.012197 h 4 v -2.012197 z m -56,5.997289 v 2.012197 h 2 v -2.012197 z m 4,0 v 2.012197 h 2 v -2.012197 z m 4,0 v 2.012197 h 2 v -2.012197 z m 4,0 v 2.012197 h 2 v -2.012197 z m 4,0 v 2.012197 h 2 v -2.012197 z m 4,0 v 2.012197 h 2 v -2.012197 z m 4,0 v 2.012197 h 2 v -2.012197 z m 4,0 v 2.012197 h 2 v -2.012197 z m 4,0 v 2.012197 h 2 v -2.012197 z m 4,0 v 2.012197 h 2 v -2.012197 z m 4,0 v 2.012197 h 2 v -2.012197 z m 4,0 v 2.012197 h 2 v -2.012197 z m 4,0 v 2.012197 h 2 v -2.012197 z m -48,5.997289 v 2.012197 h 2 v -2.012197 z m 4,0 v 2.012197 h 2 v -2.012197 z m 4,0 v 2.012197 h 2 v -2.012197 z m 4,0 v 2.012197 h 2 v -2.012197 z m 4,0 v 2.012197 h 2 v -2.012197 z m 4,0 v 2.012197 h 2 v -2.012197 z m 4,0 v 2.012197 h 2 v -2.012197 z m 4,0 v 2.012197 h 2 v -2.012197 z m 4,0 v 2.012197 h 2 v -2.012197 z m 4,0 v 2.012197 h 2 v -2.012197 z m 4,0 v 2.012197 h 2 v -2.012197 z m -40,5.99729 v 2.012197 h 2 v -2.012197 z m 4,0 v 2.012197 h 2 v -2.012197 z m 4,0 v 2.012197 h 2 v -2.012197 z m 4,0 v 2.012197 h 2 v -2.012197 z m 4,0 v 2.012197 h 2 v -2.012197 z m -16,5.99729 v 2.012197 h 42 v -2.012197 z m 0,3.985092 v 4.024394 h 6 v -2.012197 h -4 v -2.012197 z m 8,0 v 4.024394 h 2 v -4.024394 z m 4,0 v 4.024394 h 10 v -2.012197 h -2 v -2.012197 h -2 v 2.012197 h -4 v -2.012197 z m 12,2.012197 v 2.012197 h 4 v -2.012197 z m -24,9.982382 v 4.024394 h 4 v -4.024394 z m 0,5.99729 V 82 h 16 v -4.024394 h -6 v 2.012197 h -6 v -2.012197 z m 18,0 V 82 h 4 v -2.012197 h -2 v -2.012197 z"
       sodipodi:nodetypes="ccccccccccccccccccccccccccccccccccccccccccccccccccccccccccccccccccccccccccccccccccccccccccccccccccccccccccccccccccccccccccccccccccccccccccccccccccccccccccccccccccccccccccccccccccccccccccccccccccccccccccccccccccccccccccccccccccccccccccccccccccccccccccccccccccccccccccccccccccccccccccccccccccc" />
    <path
       class="icon-white"
       d="m 121.39,92.25175 c -1.4,4.212 -4.3914,9.748 -11.999,9.748 h -6.392 v 7.252 c 0,3.62 -0.476,9.1486 -10.988,12.193 -3.616,1.044 -6.912,1.556 -10.264,1.556 -3.32,0 -6.388,-0.512 -9.968,-1.568 -7.668,-2.252 -11.775,-6.0566 -11.78,-12.181 v -6.252 h -5.192 c -6.792,0 -11.506,-3.564 -13.398,-11.44 -1.876,-7.784 -1.876,-12.084 0,-19.868 1.804,-7.524 7.5736,-11.692 15.114,-11.692 h 3.472 v -6.788 c 0,-8.02 3.336,-10.812 12.216,-12.384 C 75.123,40.31575 78.107,40 81.395,40 h 0.012 c 3.684,0 6.94,0.28775 10.148,0.82375 7.264,1.212 11.444,5.7722 11.444,12.392 v 6.784 h 6.392 c 4.568,0 9.5554,1.424 12.091,11.648 2.06,8.288 2.036,14.232 -0.092,20.604 z"
       fill="#ffffff"
       id="pylogo-outline" />
    <path
       id="pylogo-bottom"
       class="st1"
       d="m 103,62.99975 v 7.728 c 0,6.332 -5.878,12.272 -12.002,12.272 H 72.626 c -5.032,0 -9.626,3.696 -9.626,8.736 v 17.516 c 0,4.984 4.766,7.916 9.626,9.348 5.824,1.712 11.404,2.02 18.372,0 4.632,-1.34 9.002,-4.04 9.002,-9.348 v -7.252 H 82 v -3 h 27.39 c 5.344,0 7.336,-2.824 9.196,-8.42 1.92,-5.76 1.84,-11.304 0,-18.692 -1.32,-5.32 -3.844,-8.888 -9.196,-8.888 z m -10.846,43.916 c 1.908,0 3.452,1.564 3.452,3.496 0.01776,1.9242 -1.5278,3.4984 -3.452,3.516 -1.9233,-0.0198 -3.4675,-1.5927 -3.452,-3.516 -0.0089,-1.9173 1.5347,-3.4806 3.452,-3.496 z"
       fill="url(#path1950_1_)"
       stroke-width="4"
       style="fill:#ffc836;fill-opacity:1" />
    <path
       id="pylogo-top"
       class="st0"
       d="m 81.169,43.00175 c -3.1852,0.016 -6.2286,0.284 -8.9032,0.752 -7.886,1.376 -9.2256,4.2522 -9.2655,9.56 v 6.6864 h 19 v 3 h -26.046 c -5.414,0 -10.159,2.8736 -11.643,8.9856 -1.7101,7.004 -1.7871,11.376 0,18.692 1.3251,5.4441 4.486,9.3224 9.9041,9.3224 h 5.784 v -8.4024 c 0,-6.072 5.9437,-11.598 12.265,-11.598 h 18.613 c 4.5787,0 9.1217,-4.3891 9.1217,-9.1784 v -17.516 c 0,-4.984 -4.0643,-8.728 -9.1217,-9.56 -3.2014,-0.52 -6.5244,-0.756 -9.7096,-0.744 z m -10.074,5.64 c 1.9249,0 3.4972,1.576 3.4972,3.516 0.009,1.9173 -1.5549,3.4806 -3.4972,3.496 -1.9443,-0.01101 -3.5107,-1.5769 -3.4972,-3.496 0,-1.94 1.5642,-3.516 3.4972,-3.516 z"
       fill="url(#path1948_1_)"
       stroke-width="4.0261"
       style="fill:#366a96;fill-opacity:1" />
  </g>
  <g
     inkscape:groupmode="layer"
     id="layer2"
     inkscape:label="hairline"
     style="display:none;opacity:1;mix-blend-mode:normal"
     sodipodi:insensitive="true">
    <rect
       ry="7.0039353"
       rx="8.2346563"
       y="8.4744244"
       x="8.4744244"
       height="91.051155"
       width="107.05054"
       id="rect2896-3"
       style="display:inline;opacity:0.1;mix-blend-mode:normal;fill:none;fill-opacity:1;stroke:#000000;stroke-width:1;stroke-linecap:butt;stroke-linejoin:miter;stroke-miterlimit:4;stroke-dasharray:1, 1;stroke-dashoffset:0;stroke-opacity:1;marker:none;marker-start:none;marker-mid:none;marker-end:none;paint-order:normal;enable-background:new" />
    <g
       id="g969">
      <ellipse
         cx="81.500053"
         cy="81.499283"
         id="circle2892"
         style="display:inline;opacity:0.1;fill:none;fill-opacity:1;stroke:#000000;stroke-width:1.00014;stroke-linecap:butt;stroke-linejoin:miter;stroke-miterlimit:4;stroke-dasharray:1.00014, 1.00014;stroke-dashoffset:0;stroke-opacity:1;marker:none;marker-start:none;marker-mid:none;marker-end:none;paint-order:normal;enable-background:new"
         rx="40.999882"
         ry="41.000526" />
      <ellipse
         cx="81.498726"
         cy="81.500618"
         id="circle2892-3"
         style="display:inline;opacity:0.1;mix-blend-mode:normal;fill:none;fill-opacity:1;stroke:#000000;stroke-width:0.999981;stroke-linecap:butt;stroke-linejoin:miter;stroke-miterlimit:4;stroke-dasharray:0.999981, 0.999981;stroke-dashoffset:0;stroke-opacity:1;marker:none;marker-start:none;marker-mid:none;marker-end:none;paint-order:normal;enable-background:new"
         rx="38.001289"
         ry="38.001286" />
    </g>
  </g>
</svg>
