<?xml version="1.0" encoding="UTF-8"?>
<svg width="48" height="48" version="1.1" viewBox="0 0 12.7 12.7" xmlns="http://www.w3.org/2000/svg" xmlns:xlink="http://www.w3.org/1999/xlink">
 <defs>
  <linearGradient id="linearGradient1004" x1="344" x2="344" y1="66.001" y2="102" gradientTransform="rotate(-90,344,84)" gradientUnits="userSpaceOnUse">
   <stop stop-color="#fff" offset="0"/>
   <stop stop-color="#fff" stop-opacity=".098039" offset=".125"/>
   <stop stop-color="#fff" stop-opacity=".098039" offset=".925"/>
   <stop stop-color="#fff" stop-opacity=".49804" offset="1"/>
  </linearGradient>
  <clipPath id="clipPath994">
   <path d="m335.73 62c-8.8242 0-9.7736 0.90635-9.7304 9.7484v12.252 12.252c-0.0433 8.842 0.90622 9.7484 9.7304 9.7484h16.539c8.8242 0 9.7304-0.90625 9.7304-9.7484v-12.252-12.252c0-8.8421-0.90622-9.7484-9.7304-9.7484z" color="#000000" fill="#cdcdcd"/>
  </clipPath>
 </defs>
 <path id="canvas-align-top-left" d="m3.175 3.175h-3.175v-3.175h3.175z" opacity="0" stroke-width=".099218" style="mix-blend-mode:normal"/>
 <g>
  <path d="m10.949 3.4618c0-0.52353-0.01176-0.93577-0.06733-1.275-0.055559-0.3392-0.15977-0.61676-0.3577-0.82008-0.19793-0.20332-0.46866-0.31063-0.79979-0.36703-0.33113-0.056407-0.73427-0.067419-1.2464-0.064852h-2.929-2.9304c-0.51131-0.0025433-0.91424 0.0085012-1.245 0.064852-0.33113 0.056407-0.60186 0.16372-0.79979 0.36703-0.19793 0.20332-0.30215 0.48088-0.35771 0.82008-0.055562 0.3392-0.067323 0.75143-0.067323 1.275v4.1302c0 0.52354 0.011742 0.93555 0.067323 1.274 0.055585 0.3385 0.16015 0.61521 0.35816 0.81778 0.198 0.20257 0.46854 0.30924 0.79935 0.36611 0.33081 0.05687 0.73313 0.06899 1.245 0.06899h2.9304 2.9303c0.51189 0 0.91421-0.01213 1.245-0.06899 0.33081-0.056866 0.60134-0.16355 0.79934-0.36612 0.198-0.20257 0.30257-0.47928 0.35816-0.81778 0.05559-0.33849 0.06733-0.75051 0.06733-1.274z" color="#000000" color-rendering="auto" dominant-baseline="auto" image-rendering="auto" opacity=".1" shape-rendering="auto" solid-color="#000000" style="font-feature-settings:normal;font-variant-alternates:normal;font-variant-caps:normal;font-variant-ligatures:normal;font-variant-numeric:normal;font-variant-position:normal;isolation:auto;mix-blend-mode:normal;shape-padding:0;text-decoration-color:#000000;text-decoration-line:none;text-decoration-style:solid;text-indent:0;text-orientation:mixed;text-transform:none;white-space:normal"/>
  <path d="m10.72 3.2262c0-1.9385-0.20828-2.3016-2.2401-2.2914h-2.9302-2.9303c-2.0319-0.010197-2.2401 0.35297-2.2401 2.2914v4.1303c0 1.938 0.20825 2.2914 2.2401 2.2914h2.9303 2.9302c2.0319 0 2.2401-0.35345 2.2401-2.2914z" color="#000000" fill="#4d4d4d"/>
  <path d="m10.72 3.2262c0-1.9385-0.20828-2.3016-2.2401-2.2914h-2.9302-2.9303c-2.0319-0.010197-2.2401 0.35297-2.2401 2.2914v4.1303c0 1.938 0.20825 2.2914 2.2401 2.2914h2.9303 2.9302c2.0319 0 2.2401-0.35345 2.2401-2.2914z" color="#000000" fill="none" opacity=".4" stroke="#000" stroke-width=".26459"/>
  <path transform="matrix(0 .23549 -.22979 0 24.852 -75.718)" d="m335.73 62c-8.8242 0-9.7736 0.90635-9.7304 9.7484v12.252 12.252c-0.0433 8.842 0.90622 9.7484 9.7304 9.7484h16.539c8.8242 0 9.7304-0.90625 9.7304-9.7484v-12.252-12.252c0-8.8421-0.90622-9.7484-9.7304-9.7484z" clip-path="url(#clipPath994)" color="#000000" fill="none" opacity=".3" stroke="url(#linearGradient1004)" stroke-width="2.2748"/>
 </g>
 <g stroke-width=".099218">
  <path id="pylogo-outline" d="m12.044 9.153c-0.1389 0.4179-0.43571 0.96716-1.1905 0.96716h-0.6342v0.71951c0 0.35917-0.04723 0.90769-1.0902 1.2098-0.35877 0.10358-0.6858 0.15438-1.0184 0.15438-0.3294 0-0.63379-0.0508-0.98899-0.15557-0.7608-0.22344-1.1683-0.60094-1.1688-1.2086v-0.62032h-0.51514c-0.67388 0-1.1416-0.35361-1.3293-1.135-0.18613-0.77231-0.18613-1.199 0-1.9713 0.17899-0.74651 0.75142-1.1601 1.4996-1.1601h0.34448v-0.6735c0-0.79571 0.33099-1.0727 1.212-1.2287 0.28892-0.050797 0.585-0.082129 0.91121-0.082129h0.0012c0.36552 0 0.68858 0.028549 1.0069 0.081731 0.72071 0.12025 1.1355 0.5727 1.1355 1.2295v0.67309h0.6342c0.45322 0 0.94808 0.14128 1.1996 1.1557 0.20439 0.8223 0.202 1.4121-0.0091 2.0443z" fill="#fff" style="mix-blend-mode:normal"/>
  <path id="pylogo-bottom" d="m10.22 6.2509v0.76676c0 0.62824-0.5832 1.2176-1.1908 1.2176h-1.8228c-0.49928 0-0.95505 0.36671-0.95505 0.86678v1.7379c0 0.49451 0.47288 0.7854 0.95505 0.92749 0.57784 0.16986 1.1315 0.20042 1.8228 0 0.45956-0.13295 0.89314-0.40084 0.89314-0.92749v-0.71951h-1.7859v-0.29765h2.7176c0.53021 0 0.72788-0.28019 0.91241-0.83542 0.1905-0.5715 0.18256-1.1216 0-1.8546-0.13097-0.52785-0.38138-0.88185-0.91241-0.88185zm-1.0761 4.3571c0.18931 0 0.3425 0.15518 0.3425 0.34686 0.0017625 0.19091-0.15158 0.3471-0.3425 0.34885-0.19083-0.00195-0.34404-0.15802-0.3425-0.34885-9e-4 -0.19023 0.15227-0.34534 0.3425-0.34686z" fill="#ffc836" style="mix-blend-mode:normal"/>
  <path id="pylogo-top" d="m8.0535 4.2664c-0.31603 0.001575-0.618 0.028178-0.88335 0.07461-0.78244 0.13652-0.91534 0.42188-0.91931 0.94852v0.66341h1.8851v0.29765h-2.5842c-0.53715 0-1.008 0.28511-1.1552 0.89152-0.16967 0.69491-0.17731 1.1287 0 1.8546 0.13148 0.54015 0.44509 0.92494 0.98265 0.92494h0.57386v-0.83366c0-0.60244 0.58972-1.1507 1.2169-1.1507h1.8467c0.45428 0 0.90502-0.43549 0.90502-0.91065v-1.7379c0-0.49451-0.40324-0.86599-0.90502-0.94852-0.31764-0.051592-0.64732-0.075008-0.96338-0.073819zm-0.99952 0.55958c0.19098 0 0.34698 0.15637 0.34698 0.34885 9e-4 0.19023-0.15428 0.34534-0.34698 0.34686-0.19291-0.0010875-0.34832-0.15646-0.34698-0.34686 0-0.19248 0.1552-0.34885 0.34698-0.34885z" fill="#366a96" style="mix-blend-mode:normal"/>
 </g>
 <path d="m3.4806 4.4707v0.34789h1.719v-0.34789z" enable-background="new" opacity=".2"/>
 <path d="m3.4806 4.2352v0.34789h1.719v-0.34789z" enable-background="new" fill="#f2f2f2"/>
 <g transform="translate(6.3501 4.1796)">
  <path d="m-4.3551-1.8362-0.1106 0.341 1.1228 0.46155-1.1228 0.46155 0.1106 0.341 1.4446-0.62688v-0.35133z" enable-background="new" opacity=".2"/>
  <path d="m-4.3551-2.0717-0.1106 0.341 1.1228 0.46155-1.1228 0.46155 0.1106 0.341 1.4446-0.62688v-0.35133z" enable-background="new" fill="#f2f2f2"/>
 </g>
</svg>
